<svg width="59" height="90" viewBox="0 0 59 90" fill="none" xmlns="http://www.w3.org/2000/svg">
<g clip-path="url(#clip0_1_88)">
<path d="M15.0513 89.6605C23.0898 89.6605 29.6099 83.0208 29.6099 74.8348V60.0091H15.0513C7.01274 60.0091 0.492615 66.6488 0.492615 74.8348C0.492615 83.0208 7.01274 89.6605 15.0513 89.6605Z" fill="#0ACF83"/>
<path d="M0.492615 45.1652C0.492615 36.9792 7.01274 30.3395 15.0513 30.3395H29.6099V60.0091H15.0513C7.01274 59.9909 0.492615 53.3512 0.492615 45.1652Z" fill="#A259FF"/>
<path d="M0.492615 15.4956C0.492615 7.30965 7.01274 0.669922 15.0513 0.669922H29.6099V30.3395H15.0513C7.01274 30.3395 0.492615 23.6816 0.492615 15.4956Z" fill="#F24E1E"/>
<path d="M29.6277 0.669922H44.1864C52.2249 0.669922 58.745 7.30965 58.745 15.4956C58.745 23.6816 52.2249 30.3213 44.1864 30.3213H29.6277V0.669922V0.669922Z" fill="#FF7262"/>
<path d="M58.7451 45.1652C58.7451 53.3512 52.2249 59.9909 44.1864 59.9909C36.1479 59.9909 29.6278 53.3512 29.6278 45.1652C29.6278 36.9792 36.1479 30.3395 44.1864 30.3395C52.2249 30.3395 58.7451 36.9792 58.7451 45.1652Z" fill="#1ABCFE"/>
</g>
<defs>
<clipPath id="clip0_1_88">
<rect width="58.2524" height="88.9906" fill="white" transform="translate(0.492615 0.669922)"/>
</clipPath>
</defs>
</svg>
